<svg xmlns="http://www.w3.org/2000/svg" width="134.4" height="31.641" viewBox="0 0 126 29.664"><defs><clipPath id="b" clipPathUnits="userSpaceOnUse"><path d="M0 0h595.276v841.89H0z"/></clipPath><clipPath id="a" clipPathUnits="userSpaceOnUse"><path d="M0 0h595.276v841.89H0z"/></clipPath></defs><g clip-path="url(#a)" transform="matrix(1.25 0 0 -1.25 -91.508 338.515)"><path d="M0 0h5.432c2.2 0 3.84-.964 3.84-2.995 0-1.489-.761-2.318-2.081-2.758v-.034c1.574-.322 2.386-1.168 2.386-2.606 0-2.826-2.488-3.418-4.603-3.418H0zm3.147-4.671h.88c1.032 0 2.099.254 2.099 1.253 0 1.082-1.016 1.184-2.066 1.184h-.913zm0-4.907h.931c1.151 0 2.352.17 2.352 1.371 0 1.286-1.235 1.404-2.319 1.404h-.964z" style="fill:#00529c;fill-opacity:1;fill-rule:nonzero;stroke:none" transform="translate(100.48 264.856)"/></g><path d="M0 0h3.858L8.41-11.811H4.958l-.88 2.521H-.355l-.931-2.521h-3.198zm1.929-2.437h-.034L.372-7.057h2.962z" style="fill:#00529c;fill-opacity:1;fill-rule:nonzero;stroke:none" transform="matrix(1.25 0 0 -1.25 51.227 7.445)"/><path d="M0 0h4.01l3.994-8.021h.033L7.987 0h2.877v-11.811h-3.91L2.826-3.739h-.033l.1-8.072H0z" style="fill:#00529c;fill-opacity:1;fill-rule:nonzero;stroke:none" transform="matrix(1.25 0 0 -1.25 62.287 7.445)"/><path d="M0 0h3.147v-4.823h.034L6.734 0h3.79L6.159-5.499l4.704-6.312H6.852L3.181-6.447h-.034v-5.364H0z" style="fill:#00529c;fill-opacity:1;fill-rule:nonzero;stroke:none" transform="matrix(1.25 0 0 -1.25 77.202 7.445)"/><g clip-path="url(#b)" transform="matrix(1.25 0 0 -1.25 -91.508 338.515)"><path d="M0 0h5.432c2.199 0 3.841-.964 3.841-2.995 0-1.489-.761-2.318-2.081-2.758v-.034c1.574-.322 2.385-1.168 2.385-2.606 0-2.826-2.487-3.418-4.602-3.418H0zm3.147-4.671h.88c1.033 0 2.098.254 2.098 1.253 0 1.082-1.014 1.184-2.064 1.184h-.914zm0-4.907h.931c1.15 0 2.352.17 2.352 1.371 0 1.286-1.235 1.404-2.318 1.404h-.965z" style="fill:#00529c;fill-opacity:1;fill-rule:nonzero;stroke:none" transform="translate(149.734 264.856)"/><path d="M0 0h5.618c2.098 0 3.807-.948 3.807-2.979 0-1.573-.744-2.622-2.267-2.977v-.034c1.014-.271 1.082-1.168 1.675-2.606l1.15-3.215H6.701L6.024-9.68c-.643 2.031-1.05 2.54-2.217 2.54h-.66v-4.671H0zm3.147-4.907h.829c1.016 0 2.302.034 2.302 1.371 0 1.099-1.1 1.302-2.302 1.302h-.829z" style="fill:#00529c;fill-opacity:1;fill-rule:nonzero;stroke:none" transform="translate(160.01 264.856)"/></g><path d="M-495.245 16.203h3.934v14.764h-3.934z" style="fill:#00529c;fill-opacity:1;fill-rule:nonzero;stroke:none" transform="translate(617.312 -8.758)"/><path d="M0 0h-16.471c-2 0-3.621-1.661-3.621-3.71v-16.312c0-2.029 1.591-3.679 3.565-3.709H-.009c2 0 3.622 1.66 3.622 3.709L3.62-3.71C3.62-1.661 2 0 0 0m-14.514-21.83-.898-.01c-1.088 0-1.97.894-1.97 1.997l-.005.157v15.064l.006.812c.041 1.067.852 1.925 1.913 1.925h1.827c1.656 0 2.998-1.44 2.998-3.137 0-.84-.329-1.602-.862-2.156l-4.661-4.73 4.369-4.449a3.12 3.12 0 0 0 .903-2.178c0-1.82-1.62-3.295-3.62-3.295m13.431.015-8.145.003s.941 2.035.941 3.295c0 1.537-.513 2.909-1.317 3.817l-2.786 2.84 2.843 2.938c.847.795 1.409 2.207 1.409 3.816 0 1.274-.352 2.402-.919 3.221h1.973c1.656 0 2.999-1.44 2.999-3.137 0-.84-.329-1.602-.862-2.156l-4.572-4.681 9.496-9.683c-.301-.189-.68-.273-1.06-.273m1.989 3.023-6.805 6.936 3.241 3.294c.659.825 1.078 2.067 1.078 3.456 0 1.282-.357 2.439-.929 3.258l1.45-.044c1.088 0 1.97-.894 1.97-1.997z" style="fill:#00529c;fill-opacity:1;fill-rule:nonzero;stroke:none" transform="matrix(1.25 0 0 -1.25 25.115 0)"/></svg>